<?xml version="1.0" encoding="iso-8859-1"?>
<!-- Generator: Adobe Illustrator 19.0.0, SVG Export Plug-In . SVG Version: 6.00 Build 0)  -->
<svg version="1.1" id="Layer_1" xmlns="http://www.w3.org/2000/svg" xmlns:xlink="http://www.w3.org/1999/xlink" x="0px" y="0px"
	 viewBox="0 0 512 512" style="enable-background:new 0 0 512 512;" xml:space="preserve">
<path style="fill:#48AEE2;" d="M505.295,107.384c-9.564-9.564-90.807-90.807-100.723-100.723
	c-20.162-20.166-50.704,10.333-30.519,30.519l12.239,12.239l-63.94,63.94c-8.428,8.428-8.428,22.091,0,30.519l45.727,45.727
	c8.426,8.426,22.091,8.429,30.519,0l63.94-63.94l12.239,12.239C494.772,157.902,525.736,127.826,505.295,107.384z"/>
<path style="fill:#39A3DB;" d="M505.295,107.384c-11.311-11.311-40.368-40.368-50.361-50.361l-30.519,30.519l-79.199,79.199
	l22.864,22.864c8.426,8.426,22.091,8.429,30.519,0l63.94-63.94l12.239,12.239C494.772,157.902,525.736,127.826,505.295,107.384z"/>
<path style="fill:#48AEE2;" d="M6.321,505.634c-8.428-8.428-8.428-22.091,0-30.519L121.386,360.05
	c20.162-20.166,50.704,10.333,30.519,30.519L36.84,505.632C28.415,514.062,14.749,514.063,6.321,505.634z"/>
<path style="fill:#39A3DB;" d="M151.905,360.051L6.321,505.634c8.426,8.428,22.091,8.429,30.519,0L151.905,390.57
	C160.333,382.142,160.333,368.478,151.905,360.051z"/>
<path style="fill:#C7E9F4;" d="M454.716,235.55c-6.5-6.5-173.988-173.988-178.313-178.311
	c-20.162-20.166-50.704,10.333-30.519,30.519l23.534,23.534L71.025,309.688c-8.428,8.428-8.428,22.091,0,30.519l100.724,100.724
	c8.425,8.428,22.091,8.429,30.519,0l198.396-198.397l23.534,23.534C444.361,286.235,474.903,255.736,454.716,235.55z"/>
<path style="fill:#80D0E1;" d="M454.716,235.55c-8.603-8.603-77.961-77.961-89.156-89.156c-10.1,10.1-234.1,234.099-244.175,244.175
	l50.361,50.361c8.425,8.428,22.091,8.429,30.519,0l198.397-198.396l23.534,23.534C444.361,286.235,474.903,255.736,454.716,235.55z"
	/>
<path style="fill:#FF5E5B;" d="M258.729,253.22c10.395-10.395,10.395-27.249,0-37.643l-46.796-46.796L71.023,309.69
	c-8.428,8.428-8.428,22.091,0,30.519l100.724,100.724c8.426,8.428,22.091,8.429,30.519,0l103.265-103.265l-46.802-46.802
	C248.335,280.469,248.335,263.614,258.729,253.22z"/>
<path style="fill:#FF423D;" d="M258.667,253.287c-63.164,63.164-131.807,131.807-137.281,137.281l50.361,50.361
	c8.426,8.428,22.091,8.429,30.519,0l103.265-103.265l-46.802-46.802C248.356,280.49,248.338,263.688,258.667,253.287z"/>
<g>
</g>
<g>
</g>
<g>
</g>
<g>
</g>
<g>
</g>
<g>
</g>
<g>
</g>
<g>
</g>
<g>
</g>
<g>
</g>
<g>
</g>
<g>
</g>
<g>
</g>
<g>
</g>
<g>
</g>
</svg>
